:SAMPLES-PER-SECOND 30
:FULLY-SPECIFIED
:DEGREES
1396
root  -38.2375 36.9247 -4.11682 -28.6089 -85.5099 54.7488
RightUpLeg  -65.9936 -17.6208 19.7055
RightLeg  38.2981 -0.0445509 -0.316379
RightFoot  -1.57184 1.45372 -16.9844
RightToes  0.00048216 0.542163 -0.142577
Spine  73.8879 -4.95014 5.6572
Spine1  3.15313 0.432428 -6.86392
HEad  -35.3888 -4.32231 3.80325
LeftShoulder1  6.67499 -25.8833 -15.7807
LeftArm  -78.5277 -77.0393 30.0786
LeftForeArm  25.1763 -16.7074 -3.36474
LeftHand  -0.25398 0.0180481 5.50724
RightShoulder  2.87145 15.026 7.99503
RightArm  -61.0717 73.4362 -7.93176
RightForeArm  -22.6834 17.8921 5.74591
RightHand  -12.2395 25.6745 -43.8081
LeftUpLeg  -63.511 14.5805 -14.5913
LeftLeg  31.6983 -2.71363 -1.45583
LeftFoot  5.14345 -0.851781 5.66304
LeftToes  1.06245e-005 4.65856e-005 -8.18504e-006
1397
root  -38.6233 37.0369 -3.9093 -29.7332 -85.4063 57.808
RightUpLeg  -67.0893 -17.0174 19.2939
RightLeg  37.8681 -0.393141 -0.604429
RightFoot  -1.75341 1.38294 -16.4931
RightToes  0.00048216 0.542163 -0.142577
Spine  74.1173 -5.38573 5.15927
Spine1  3.42366 -0.108437 -7.71211
HEad  -35.643 -3.82633 4.06288
LeftShoulder1  5.98838 -25 -13.9445
LeftArm  -82.2713 -76.5366 33.5802
LeftForeArm  25.7847 -18.8985 -3.24388
LeftHand  -0.25398 0.0180481 5.50724
RightShoulder  2.36584 14.5217 5.33827
RightArm  -66.4657 73.7827 -11.3771
RightForeArm  -17.7476 18.4095 5.2938
RightHand  -14.4183 28.366 -47.0484
LeftUpLeg  -64.615 14.4701 -15.9368
LeftLeg  31.2423 -2.87621 -1.53274
LeftFoot  4.49896 -0.903099 6.28363
LeftToes  1.06245e-005 4.65856e-005 -8.18504e-006
1398
root  -38.9748 37.1723 -3.72137 -31.1801 -85.2803 60.8315
RightUpLeg  -67.7726 -16.5787 18.8246
RightLeg  37.2413 -0.579659 -0.746424
RightFoot  -1.89112 1.34331 -16.2724
RightToes  0.00048216 0.542163 -0.142577
Spine  74.113 -5.8409 4.80532
Spine1  4.0382 -0.673208 -8.60252
HEad  -36.1734 -3.2396 4.52991
LeftShoulder1  5.42731 -24.0293 -12.5428
LeftArm  -85.3541 -76.2955 35.0135
LeftForeArm  27.2068 -22.1553 -3.37706
LeftHand  -0.25398 0.0180481 5.50724
RightShoulder  2.01305 13.9152 3.5755
RightArm  -71.0155 74.3275 -14.5823
RightForeArm  -17.0836 19.7592 5.27616
RightHand  -16.3046 30.3921 -49.7924
LeftUpLeg  -65.1495 14.1255 -16.753
LeftLeg  30.3317 -2.92837 -1.50346
LeftFoot  4.20496 -0.828415 5.87692
LeftToes  1.06245e-005 4.65856e-005 -8.18504e-006
1399
root  -39.2766 37.3372 -3.54348 -33.7354 -85.3166 64.5432
RightUpLeg  -67.8958 -16.0298 18.1222
RightLeg  36.4123 -0.795955 -0.899024
RightFoot  -1.88966 1.28895 -15.6278
RightToes  0.00048216 0.542163 -0.142577
Spine  74.2191 -6.12124 4.47386
Spine1  4.73775 -0.927129 -9.40837
HEad  -36.6806 -2.63758 4.88671
LeftShoulder1  4.98042 -23.0813 -11.4814
LeftArm  -88.9844 -76.423 36.5666
LeftForeArm  29.1869 -24.3043 -3.65874
LeftHand  -0.25398 0.0180481 5.50724
RightShoulder  1.81782 13.4386 2.63898
RightArm  -76.4321 74.9722 -18.2918
RightForeArm  -19.0384 20.4385 5.39128
RightHand  -17.0344 31.0576 -50.8856
LeftUpLeg  -65.2533 13.9488 -17.3908
LeftLeg  29.2769 -3.06709 -1.51591
LeftFoot  4.3018 -0.843436 5.94382
LeftToes  1.06245e-005 4.65856e-005 -8.18504e-006
1400
root  -39.5166 37.511 -3.37658 -36.2645 -85.4082 67.9562
RightUpLeg  -67.6518 -15.4447 17.3289
RightLeg  35.3541 -1.15331 -1.14252
RightFoot  -1.76962 1.22265 -14.6464
RightToes  0.00048216 0.542163 -0.142577
Spine  74.3275 -6.20466 4.18903
Spine1  5.13028 -0.97144 -9.838
HEad  -36.7539 -2.26075 5.00878
LeftShoulder1  4.56205 -22.1514 -10.4426
LeftArm  -91.3664 -76.8684 38.0323
LeftForeArm  30.0279 -24.624 -3.69102
LeftHand  -0.25398 0.0180481 5.50724
RightShoulder  1.66171 13.1045 1.81824
RightArm  -81.6889 75.6164 -21.0411
RightForeArm  -19.9433 19.7572 5.22569
RightHand  -17.4241 31.3841 -51.4844
LeftUpLeg  -65.0908 13.8646 -17.9482
LeftLeg  28.1938 -3.091 -1.45394
LeftFoot  4.25355 -0.913996 6.47844
LeftToes  1.06245e-005 4.65856e-005 -8.18504e-006
1401
root  -39.7045 37.6662 -3.22074 -37.3998 -85.4125 69.8228
RightUpLeg  -67.4006 -15.167 16.8288
RightLeg  34.24 -1.41324 -1.29361
RightFoot  -1.66413 1.18572 -14.0503
RightToes  0.00048216 0.542163 -0.142577
Spine  74.3038 -6.20108 4.08188
Spine1  5.09257 -1.03137 -9.81889
HEad  -36.5215 -2.20605 5.08317
LeftShoulder1  4.15956 -21.2136 -9.39865
LeftArm  -91.7236 -77.6116 37.7024
LeftForeArm  29.9239 -24.3538 -3.64009
LeftHand  -0.25398 0.0180481 5.50724
RightShoulder  1.52707 12.9001 1.02887
RightArm  -84.489 76.0697 -21.6569
RightForeArm  -18.6775 18.6038 4.81524
RightHand  -18.4133 32.3424 -52.7961
LeftUpLeg  -64.7644 13.6351 -18.2867
LeftLeg  26.9863 -2.98058 -1.309
LeftFoot  4.10758 -0.899526 6.44044
LeftToes  1.06245e-005 4.65856e-005 -8.18504e-006
1402
root  -39.8533 37.8024 -3.06786 -37.6284 -85.3691 70.5723
RightUpLeg  -67.2012 -15.2945 16.679
RightLeg  33.2531 -1.37565 -1.22607
RightFoot  -1.5876 1.17667 -13.831
RightToes  0.00048216 0.542163 -0.142577
Spine  74.2357 -6.24624 4.10008
Spine1  5.03604 -1.12712 -9.67371
HEad  -36.4878 -2.20081 5.23037
LeftShoulder1  3.87733 -20.3748 -8.75338
LeftArm  -91.8835 -78.3493 36.391
LeftForeArm  30.0181 -24.5141 -3.66866
LeftHand  -0.25398 0.0180481 5.50724
RightShoulder  1.44875 12.8385 0.523779
RightArm  -85.1843 76.2186 -21.1885
RightForeArm  -16.9519 18.0802 4.51605
RightHand  -19.3836 33.2777 -54.0236
LeftUpLeg  -64.3122 13.3391 -18.4792
LeftLeg  25.7575 -2.94184 -1.2084
LeftFoot  4.24029 -0.858967 6.08353
LeftToes  1.06245e-005 4.65856e-005 -8.18504e-006
1403
root  -39.962 37.9293 -2.91554 -37.9092 -85.3926 71.107
RightUpLeg  -66.8564 -15.543 16.5831
RightLeg  32.3603 -1.19548 -1.06726
RightFoot  -1.4422 1.15865 -13.4139
RightToes  0.00048216 0.542163 -0.142577
Spine  74.2046 -6.40169 4.06965
Spine1  5.28365 -1.22739 -9.72149
HEad  -36.7601 -1.89499 5.40269
LeftShoulder1  3.77126 -19.8043 -8.69395
LeftArm  -93.6919 -78.55 37.0095
LeftForeArm  30.333 -24.6673 -3.68442
LeftHand  -0.25398 0.0180481 5.50724
RightShoulder  1.40216 12.8392 0.198769
RightArm  -86.1017 76.2405 -21.2314
RightForeArm  -15.8185 18.1701 4.40892
RightHand  -19.2477 33.166 -53.8252
LeftUpLeg  -63.7751 13.1506 -18.6317
LeftLeg  24.744 -2.96661 -1.15711
LeftFoot  4.51757 -0.892084 6.20063
LeftToes  1.06245e-005 4.65856e-005 -8.18504e-006
